<svg width="36" height="37" viewBox="0 0 36 37" fill="none" xmlns="http://www.w3.org/2000/svg">
<path d="M30.1212 3.66992H6.61417C4.99365 3.66992 3.67578 5.02671 3.67578 6.69509V24.8461C3.67578 26.5145 4.99365 27.8713 6.61417 27.8713H11.0217V33.5692L20.2439 27.8713H30.1212C31.7418 27.8713 33.0596 26.5145 33.0596 24.8461V6.69509C33.0596 5.02671 31.7418 3.66992 30.1212 3.66992ZM30.1212 24.8461H19.4299L13.9601 28.2237V24.8461H6.61417V6.69509H30.1212V24.8461Z" fill="#307FF5"/>
<path d="M21.019 14.5441L18.9636 12.4295L13.2793 18.2742V20.3903H15.3347L21.019 14.5441ZM21.4994 9.82031L23.5534 11.9364L21.9872 13.5488L19.9318 11.4342L21.4994 9.82031Z" fill="#307FF5"/>
</svg>
