<svg width="106" height="64" viewBox="0 0 106 64" fill="none" xmlns="http://www.w3.org/2000/svg">
<g filter="url(#filter0_d)">
<path fill-rule="evenodd" clip-rule="evenodd" d="M96.2527 0.00678827C86.9291 0.395538 68.3976 1.81054 56.9574 6.95554C56.168 7.31054 55.7205 7.94179 55.7205 8.60179V54.0855C55.7205 55.5293 57.8694 56.4418 59.6814 55.7718C71.4516 51.4193 88.4739 50.2318 96.8907 49.9068C99.7644 49.7955 101.998 48.103 101.998 46.0743V3.84429C102 1.63054 99.3867 -0.123212 96.2527 0.00678827ZM49.0409 6.95554C37.6024 1.81054 19.0709 0.396788 9.74729 0.00678827C6.61333 -0.123212 4 1.63054 4 3.84429V46.0755C4 48.1055 6.23392 49.798 9.10757 49.908C17.5277 50.233 34.5586 51.4218 46.3288 55.7768C48.1357 56.4455 50.2778 55.5343 50.2778 54.0943V8.57929C50.2778 7.91804 49.832 7.31179 49.0409 6.95554ZM17.818 27.9605C18.3873 28.0818 18.8447 28.3665 19.19 28.8145C19.5353 29.2531 19.708 29.7571 19.708 30.3265C19.708 31.1478 19.4187 31.8011 18.84 32.2865C18.2707 32.7625 17.4727 33.0005 16.446 33.0005H11.868V23.1725H16.292C17.2907 23.1725 18.07 23.4011 18.63 23.8585C19.1993 24.3158 19.484 24.9365 19.484 25.7205C19.484 26.2991 19.33 26.7798 19.022 27.1625C18.7233 27.5451 18.322 27.8111 17.818 27.9605ZM14.262 27.1485H15.83C16.222 27.1485 16.5207 27.0645 16.726 26.8965C16.9407 26.7191 17.048 26.4625 17.048 26.1265C17.048 25.7905 16.9407 25.5338 16.726 25.3565C16.5207 25.1791 16.222 25.0905 15.83 25.0905H14.262V27.1485ZM16.026 31.0685C16.4273 31.0685 16.7353 30.9798 16.95 30.8025C17.174 30.6158 17.286 30.3498 17.286 30.0045C17.286 29.6591 17.1693 29.3885 16.936 29.1925C16.712 28.9965 16.3993 28.8985 15.998 28.8985H14.262V31.0685H16.026ZM24.6525 33.1125C23.8872 33.1125 23.1965 32.9491 22.5805 32.6225C21.9738 32.2958 21.4932 31.8291 21.1385 31.2225C20.7932 30.6158 20.6205 29.9065 20.6205 29.0945C20.6205 28.2918 20.7978 27.5871 21.1525 26.9805C21.5072 26.3645 21.9925 25.8931 22.6085 25.5665C23.2245 25.2398 23.9152 25.0765 24.6805 25.0765C25.4458 25.0765 26.1365 25.2398 26.7525 25.5665C27.3685 25.8931 27.8538 26.3645 28.2085 26.9805C28.5632 27.5871 28.7405 28.2918 28.7405 29.0945C28.7405 29.8971 28.5585 30.6065 28.1945 31.2225C27.8398 31.8291 27.3498 32.2958 26.7245 32.6225C26.1085 32.9491 25.4178 33.1125 24.6525 33.1125ZM24.6525 31.0405C25.1098 31.0405 25.4972 30.8725 25.8145 30.5365C26.1412 30.2005 26.3045 29.7198 26.3045 29.0945C26.3045 28.4691 26.1458 27.9885 25.8285 27.6525C25.5205 27.3165 25.1378 27.1485 24.6805 27.1485C24.2139 27.1485 23.8265 27.3165 23.5185 27.6525C23.2105 27.9791 23.0565 28.4598 23.0565 29.0945C23.0565 29.7198 23.2058 30.2005 23.5045 30.5365C23.8125 30.8725 24.1952 31.0405 24.6525 31.0405ZM33.5666 33.1125C32.8012 33.1125 32.1106 32.9491 31.4946 32.6225C30.8879 32.2958 30.4072 31.8291 30.0526 31.2225C29.7072 30.6158 29.5346 29.9065 29.5346 29.0945C29.5346 28.2918 29.7119 27.5871 30.0666 26.9805C30.4212 26.3645 30.9066 25.8931 31.5226 25.5665C32.1386 25.2398 32.8292 25.0765 33.5946 25.0765C34.3599 25.0765 35.0506 25.2398 35.6666 25.5665C36.2826 25.8931 36.7679 26.3645 37.1226 26.9805C37.4772 27.5871 37.6546 28.2918 37.6546 29.0945C37.6546 29.8971 37.4726 30.6065 37.1086 31.2225C36.7539 31.8291 36.2639 32.2958 35.6386 32.6225C35.0226 32.9491 34.3319 33.1125 33.5666 33.1125ZM33.5666 31.0405C34.0239 31.0405 34.4112 30.8725 34.7286 30.5365C35.0552 30.2005 35.2186 29.7198 35.2186 29.0945C35.2186 28.4691 35.0599 27.9885 34.7426 27.6525C34.4346 27.3165 34.0519 27.1485 33.5946 27.1485C33.1279 27.1485 32.7406 27.3165 32.4326 27.6525C32.1246 27.9791 31.9706 28.4598 31.9706 29.0945C31.9706 29.7198 32.1199 30.2005 32.4186 30.5365C32.7266 30.8725 33.1092 31.0405 33.5666 31.0405ZM43.6986 33.0005L41.3186 29.7245V33.0005H38.9246V22.6405H41.3186V28.3665L43.6846 25.1885H46.6386L43.3906 29.1085L46.6666 33.0005H43.6986ZM62.6241 33.1125C61.9428 33.1125 61.3361 32.9958 60.8041 32.7625C60.2721 32.5291 59.8521 32.2118 59.5441 31.8105C59.2361 31.3998 59.0635 30.9425 59.0261 30.4385H61.3921C61.4201 30.7091 61.5461 30.9285 61.7701 31.0965C61.9941 31.2645 62.2695 31.3485 62.5961 31.3485C62.8948 31.3485 63.1235 31.2925 63.2821 31.1805C63.4501 31.0591 63.5341 30.9051 63.5341 30.7185C63.5341 30.4945 63.4175 30.3311 63.1841 30.2285C62.9508 30.1165 62.5728 29.9951 62.0501 29.8645C61.4901 29.7338 61.0235 29.5985 60.6501 29.4585C60.2768 29.3091 59.9548 29.0805 59.6841 28.7725C59.4135 28.4551 59.2781 28.0305 59.2781 27.4985C59.2781 27.0505 59.3995 26.6445 59.6421 26.2805C59.8941 25.9071 60.2581 25.6131 60.7341 25.3985C61.2195 25.1838 61.7935 25.0765 62.4561 25.0765C63.4361 25.0765 64.2061 25.3191 64.7661 25.8045C65.3355 26.2898 65.6621 26.9338 65.7461 27.7365H63.5341C63.4968 27.4658 63.3755 27.2511 63.1701 27.0925C62.9741 26.9338 62.7128 26.8545 62.3861 26.8545C62.1061 26.8545 61.8915 26.9105 61.7421 27.0225C61.5928 27.1251 61.5181 27.2698 61.5181 27.4565C61.5181 27.6805 61.6348 27.8485 61.8681 27.9605C62.1108 28.0725 62.4841 28.1845 62.9881 28.2965C63.5668 28.4458 64.0381 28.5951 64.4021 28.7445C64.7661 28.8845 65.0835 29.1178 65.3541 29.4445C65.6341 29.7618 65.7788 30.1911 65.7881 30.7325C65.7881 31.1898 65.6575 31.6005 65.3961 31.9645C65.1441 32.3191 64.7755 32.5991 64.2901 32.8045C63.8141 33.0098 63.2588 33.1125 62.6241 33.1125ZM72.0548 25.1045C72.9508 25.1045 73.6694 25.4031 74.2108 26.0005C74.7521 26.5885 75.0228 27.4005 75.0228 28.4365V33.0005H72.6428V28.7585C72.6428 28.2358 72.5074 27.8298 72.2368 27.5405C71.9661 27.2511 71.6021 27.1065 71.1448 27.1065C70.6874 27.1065 70.3234 27.2511 70.0528 27.5405C69.7821 27.8298 69.6468 28.2358 69.6468 28.7585V33.0005H67.2528V22.6405H69.6468V26.2385C69.8894 25.8931 70.2208 25.6178 70.6408 25.4125C71.0608 25.2071 71.5321 25.1045 72.0548 25.1045ZM84.0504 28.9685C84.0504 29.1925 84.0364 29.4258 84.0084 29.6685H78.5904C78.6277 30.1538 78.7817 30.5271 79.0524 30.7885C79.3324 31.0405 79.673 31.1665 80.0744 31.1665C80.6717 31.1665 81.087 30.9145 81.3204 30.4105H83.8684C83.7377 30.9238 83.4997 31.3858 83.1544 31.7965C82.8184 32.2071 82.3937 32.5291 81.8804 32.7625C81.367 32.9958 80.793 33.1125 80.1584 33.1125C79.393 33.1125 78.7117 32.9491 78.1144 32.6225C77.517 32.2958 77.0504 31.8291 76.7144 31.2225C76.3784 30.6158 76.2104 29.9065 76.2104 29.0945C76.2104 28.2825 76.3737 27.5731 76.7004 26.9665C77.0364 26.3598 77.503 25.8931 78.1004 25.5665C78.6977 25.2398 79.3837 25.0765 80.1584 25.0765C80.9144 25.0765 81.5864 25.2351 82.1744 25.5525C82.7624 25.8698 83.2197 26.3225 83.5464 26.9105C83.8824 27.4985 84.0504 28.1845 84.0504 28.9685ZM81.6004 28.3385C81.6004 27.9278 81.4604 27.6011 81.1804 27.3585C80.9004 27.1158 80.5504 26.9945 80.1304 26.9945C79.729 26.9945 79.3884 27.1111 79.1084 27.3445C78.8377 27.5778 78.6697 27.9091 78.6044 28.3385H81.6004ZM87.7073 22.6405V33.0005H85.3133V22.6405H87.7073ZM93.3622 27.1765H92.0742V33.0005H89.6802V27.1765H88.8122V25.1885H89.6802V24.9645C89.6802 24.0031 89.9556 23.2751 90.5062 22.7805C91.0569 22.2765 91.8642 22.0245 92.9282 22.0245C93.1056 22.0245 93.2362 22.0291 93.3202 22.0385V24.0685C92.8629 24.0405 92.5409 24.1058 92.3542 24.2645C92.1675 24.4231 92.0742 24.7078 92.0742 25.1185V25.1885H93.3622V27.1765ZM13.0002 43.4999C12.8336 42.1665 14.1002 39.8997 20.5002 41.4998C26.9002 43.0999 39.5001 48.1666 45 50.5C36 48.8334 17.4 45.3001 15 44.5C12.6 43.6999 12.6668 43.4999 13.0002 43.4999ZM60.0002 48.9998C68.8336 45.9998 87.5002 40.2998 91.5002 41.4998C96.5002 42.9998 99.5002 44 85.0002 46.4999C73.4002 48.4998 63.5002 48.9998 60.0002 48.9998Z" fill="#307FF5"/>
</g>
<defs>
<filter id="filter0_d" x="0" y="0" width="105.998" height="64.0003" filterUnits="userSpaceOnUse" color-interpolation-filters="sRGB">
<feFlood flood-opacity="0" result="BackgroundImageFix"/>
<feColorMatrix in="SourceAlpha" type="matrix" values="0 0 0 0 0 0 0 0 0 0 0 0 0 0 0 0 0 0 127 0" result="hardAlpha"/>
<feOffset dy="4"/>
<feGaussianBlur stdDeviation="2"/>
<feComposite in2="hardAlpha" operator="out"/>
<feColorMatrix type="matrix" values="0 0 0 0 1 0 0 0 0 1 0 0 0 0 1 0 0 0 0.25 0"/>
<feBlend mode="normal" in2="BackgroundImageFix" result="effect1_dropShadow"/>
<feBlend mode="normal" in="SourceGraphic" in2="effect1_dropShadow" result="shape"/>
</filter>
</defs>
</svg>
