<svg width="36" height="36" viewBox="0 0 36 36" fill="none" xmlns="http://www.w3.org/2000/svg">
<path d="M21 18C21 16.35 19.65 15 18 15C16.35 15 15 16.35 15 18C15 19.65 16.35 21 18 21C19.65 21 21 19.65 21 18ZM18 4.5C14.4196 4.5 10.9858 5.92232 8.45406 8.45406C5.92232 10.9858 4.5 14.4196 4.5 18H0L6 24L12 18H7.5C7.5 12.195 12.195 7.5 18 7.5C23.805 7.5 28.5 12.195 28.5 18C28.502 19.9287 27.9724 21.8206 26.9694 23.4679C25.9663 25.1153 24.5286 26.4543 22.8142 27.3378C21.0998 28.2214 19.1751 28.6153 17.2514 28.4763C15.3277 28.3373 13.4796 27.6708 11.91 26.55L9.78 28.71C11.482 30.0161 13.4707 30.8977 15.5814 31.2818C17.692 31.666 19.8638 31.5415 21.9168 30.9189C23.9698 30.2962 25.8449 29.1933 27.3865 27.7014C28.9282 26.2095 30.0922 24.3717 30.7819 22.3403C31.4716 20.3089 31.6673 18.1423 31.3527 16.0201C31.038 13.898 30.2222 11.8814 28.9727 10.1375C27.7233 8.39354 26.0762 6.97249 24.1679 5.99211C22.2597 5.01172 20.1453 4.50022 18 4.5V4.5Z" fill="#307FF5"/>
</svg>
