<svg width="37" height="40" viewBox="0 0 37 40" fill="none" xmlns="http://www.w3.org/2000/svg">
<path d="M18.8474 2.9126C20.085 2.91251 21.2758 3.44116 22.1754 4.3901C23.075 5.33904 23.6152 6.63633 23.6853 8.01585L23.6928 8.32211H31.5199C31.8032 8.32221 32.0759 8.44236 32.2829 8.65828C32.49 8.87421 32.6158 9.16982 32.6351 9.48537C32.6545 9.80092 32.5658 10.1129 32.387 10.3582C32.2082 10.6036 31.9527 10.764 31.672 10.8072L31.5199 10.8188H30.3332L28.4248 32.4901C28.3292 33.5705 27.8927 34.5778 27.1933 35.3321C26.4939 36.0865 25.5771 36.5387 24.6067 36.608L24.3443 36.618H13.3505C12.3776 36.618 11.4364 36.2317 10.6952 35.5283C9.95394 34.8248 9.4609 33.85 9.30418 32.7781L9.26989 32.4885L7.36006 10.8188H6.17481C5.9046 10.8188 5.64354 10.7095 5.4399 10.5113C5.23626 10.313 5.10382 10.0391 5.06708 9.74023L5.05664 9.57046C5.05665 9.26879 5.15451 8.97734 5.33211 8.74999C5.50971 8.52264 5.75504 8.37479 6.02274 8.33376L6.17481 8.32211H14.002C14.002 6.88742 14.5125 5.51149 15.4212 4.49701C16.3298 3.48253 17.5623 2.9126 18.8474 2.9126ZM28.0864 10.8188H9.60683L11.4958 32.2438C11.5376 32.7218 11.7263 33.169 12.0299 33.5094C12.3334 33.8498 12.7331 34.0625 13.1611 34.1113L13.3505 34.1213H24.3443C25.2388 34.1213 25.9977 33.4139 26.1706 32.4535L26.2004 32.2438L28.0849 10.8188H28.0864ZM21.4564 15.3961C21.7266 15.3961 21.9877 15.5053 22.1913 15.7036C22.395 15.9019 22.5274 16.1758 22.5642 16.4747L22.5746 16.6444V28.2957C22.5745 28.612 22.4669 28.9164 22.2735 29.1475C22.0801 29.3787 21.8153 29.5192 21.5326 29.5407C21.25 29.5623 20.9706 29.4633 20.7508 29.2637C20.531 29.0641 20.3873 28.7788 20.3487 28.4655L20.3383 28.2957V16.6444C20.3383 16.3133 20.4561 15.9958 20.6658 15.7617C20.8755 15.5276 21.1599 15.3961 21.4564 15.3961ZM16.2383 15.3961C16.5085 15.3961 16.7696 15.5053 16.9732 15.7036C17.1769 15.9019 17.3093 16.1758 17.346 16.4747L17.3565 16.6444V28.2957C17.3564 28.612 17.2488 28.9164 17.0554 29.1475C16.8619 29.3787 16.5972 29.5192 16.3145 29.5407C16.0319 29.5623 15.7524 29.4633 15.5327 29.2637C15.3129 29.0641 15.1692 28.7788 15.1306 28.4655L15.1201 28.2957V16.6444C15.1201 16.3133 15.2379 15.9958 15.4476 15.7617C15.6573 15.5276 15.9418 15.3961 16.2383 15.3961ZM18.8474 5.40929C18.1926 5.40932 17.5617 5.68422 17.0801 6.17941C16.5984 6.6746 16.3011 7.35389 16.2473 8.08243L16.2383 8.32211H21.4564C21.4564 7.54958 21.1815 6.8087 20.6922 6.26244C20.203 5.71618 19.5393 5.40929 18.8474 5.40929Z" fill="#307FF5"/>
</svg>
